<svg width="81" height="80" viewBox="0 0 81 80" fill="none" xmlns="http://www.w3.org/2000/svg">
<circle cx="40.6283" cy="39.6552" r="39.6552" fill="#020F1C"/>
<mask id="path-2-inside-1_303_20" fill="white">
<path d="M42.6872 19.6274C44.9404 19.6334 46.084 19.6455 47.0713 19.6735L47.4599 19.6875C47.9085 19.7035 48.3511 19.7236 48.8859 19.7476C51.0168 19.8477 52.4708 20.1842 53.7466 20.6789C55.0685 21.1876 56.182 21.8766 57.2956 22.9881C58.3144 23.989 59.1024 25.2001 59.6048 26.5371C60.0995 27.8128 60.4359 29.2669 60.5361 31.3998C60.5601 31.9326 60.5801 32.3752 60.5961 32.8258L60.6082 33.2143C60.6382 34.1997 60.6502 35.3433 60.6542 37.5964L60.6562 39.0905V41.7142C60.6611 43.175 60.6458 44.6358 60.6102 46.0963L60.5982 46.4848C60.5821 46.9354 60.5621 47.378 60.5381 47.9108C60.4379 50.0438 60.0975 51.4958 59.6048 52.7736C59.1024 54.1105 58.3144 55.3216 57.2956 56.3225C56.2947 57.3413 55.0835 58.1294 53.7466 58.6317C52.4708 59.1264 51.0168 59.4629 48.8859 59.563L47.4599 59.6231L47.0713 59.6351C46.084 59.6631 44.9404 59.6772 42.6872 59.6812L41.1932 59.6832H38.5715C37.11 59.6883 35.6485 59.673 34.1874 59.6371L33.7989 59.6251C33.3234 59.6071 32.8481 59.5864 32.3729 59.563C30.2419 59.4629 28.7879 59.1264 27.5101 58.6317C26.1739 58.1291 24.9635 57.3411 23.9632 56.3225C22.9437 55.3218 22.1549 54.1107 21.652 52.7736C21.1573 51.4978 20.8208 50.0438 20.7207 47.9108L20.6606 46.4848L20.6506 46.0963C20.6137 44.6359 20.597 43.175 20.6005 41.7142V37.5964C20.595 36.1356 20.6096 34.6748 20.6446 33.2143L20.6586 32.8258C20.6746 32.3752 20.6946 31.9326 20.7187 31.3998C20.8188 29.2669 21.1553 27.8148 21.65 26.5371C22.1541 25.1996 22.9442 23.9884 23.9652 22.9881C24.9649 21.9698 26.1746 21.1818 27.5101 20.6789C28.7879 20.1842 30.2399 19.8477 32.3729 19.7476C32.9056 19.7236 33.3502 19.7035 33.7989 19.6875L34.1874 19.6755C35.6478 19.6399 37.1087 19.6246 38.5695 19.6294L42.6872 19.6274ZM40.6284 29.6414C37.9725 29.6414 35.4254 30.6964 33.5475 32.5744C31.6695 34.4524 30.6144 36.9994 30.6144 39.6553C30.6144 42.3112 31.6695 44.8582 33.5475 46.7362C35.4254 48.6142 37.9725 49.6692 40.6284 49.6692C43.2842 49.6692 45.8313 48.6142 47.7093 46.7362C49.5873 44.8582 50.6423 42.3112 50.6423 39.6553C50.6423 36.9994 49.5873 34.4524 47.7093 32.5744C45.8313 30.6964 43.2842 29.6414 40.6284 29.6414ZM40.6284 33.6469C41.4174 33.6468 42.1987 33.8021 42.9277 34.1039C43.6568 34.4057 44.3192 34.8482 44.8772 35.406C45.4352 35.9639 45.8779 36.6262 46.18 37.3551C46.4821 38.084 46.6376 38.8653 46.6377 39.6543C46.6379 40.4433 46.4826 41.2247 46.1808 41.9537C45.8789 42.6827 45.4365 43.3451 44.8786 43.9031C44.3208 44.4612 43.6585 44.9039 42.9296 45.2059C42.2007 45.508 41.4194 45.6635 40.6304 45.6637C39.0369 45.6637 37.5086 45.0306 36.3818 43.9039C35.255 42.7771 34.622 41.2488 34.622 39.6553C34.622 38.0618 35.255 36.5335 36.3818 35.4068C37.5086 34.28 39.0369 33.6469 40.6304 33.6469M51.145 26.6372C50.481 26.6372 49.8443 26.901 49.3748 27.3704C48.9053 27.8399 48.6415 28.4767 48.6415 29.1407C48.6415 29.8046 48.9053 30.4414 49.3748 30.9109C49.8443 31.3804 50.481 31.6442 51.145 31.6442C51.809 31.6442 52.4457 31.3804 52.9152 30.9109C53.3847 30.4414 53.6485 29.8046 53.6485 29.1407C53.6485 28.4767 53.3847 27.8399 52.9152 27.3704C52.4457 26.901 51.809 26.6372 51.145 26.6372Z"/>
</mask>
<path d="M42.6872 19.6274C44.9404 19.6334 46.084 19.6455 47.0713 19.6735L47.4599 19.6875C47.9085 19.7035 48.3511 19.7236 48.8859 19.7476C51.0168 19.8477 52.4708 20.1842 53.7466 20.6789C55.0685 21.1876 56.182 21.8766 57.2956 22.9881C58.3144 23.989 59.1024 25.2001 59.6048 26.5371C60.0995 27.8128 60.4359 29.2669 60.5361 31.3998C60.5601 31.9326 60.5801 32.3752 60.5961 32.8258L60.6082 33.2143C60.6382 34.1997 60.6502 35.3433 60.6542 37.5964L60.6562 39.0905V41.7142C60.6611 43.175 60.6458 44.6358 60.6102 46.0963L60.5982 46.4848C60.5821 46.9354 60.5621 47.378 60.5381 47.9108C60.4379 50.0438 60.0975 51.4958 59.6048 52.7736C59.1024 54.1105 58.3144 55.3216 57.2956 56.3225C56.2947 57.3413 55.0835 58.1294 53.7466 58.6317C52.4708 59.1264 51.0168 59.4629 48.8859 59.563L47.4599 59.6231L47.0713 59.6351C46.084 59.6631 44.9404 59.6772 42.6872 59.6812L41.1932 59.6832H38.5715C37.11 59.6883 35.6485 59.673 34.1874 59.6371L33.7989 59.6251C33.3234 59.6071 32.8481 59.5864 32.3729 59.563C30.2419 59.4629 28.7879 59.1264 27.5101 58.6317C26.1739 58.1291 24.9635 57.3411 23.9632 56.3225C22.9437 55.3218 22.1549 54.1107 21.652 52.7736C21.1573 51.4978 20.8208 50.0438 20.7207 47.9108L20.6606 46.4848L20.6506 46.0963C20.6137 44.6359 20.597 43.175 20.6005 41.7142V37.5964C20.595 36.1356 20.6096 34.6748 20.6446 33.2143L20.6586 32.8258C20.6746 32.3752 20.6946 31.9326 20.7187 31.3998C20.8188 29.2669 21.1553 27.8148 21.65 26.5371C22.1541 25.1996 22.9442 23.9884 23.9652 22.9881C24.9649 21.9698 26.1746 21.1818 27.5101 20.6789C28.7879 20.1842 30.2399 19.8477 32.3729 19.7476C32.9056 19.7236 33.3502 19.7035 33.7989 19.6875L34.1874 19.6755C35.6478 19.6399 37.1087 19.6246 38.5695 19.6294L42.6872 19.6274ZM40.6284 29.6414C37.9725 29.6414 35.4254 30.6964 33.5475 32.5744C31.6695 34.4524 30.6144 36.9994 30.6144 39.6553C30.6144 42.3112 31.6695 44.8582 33.5475 46.7362C35.4254 48.6142 37.9725 49.6692 40.6284 49.6692C43.2842 49.6692 45.8313 48.6142 47.7093 46.7362C49.5873 44.8582 50.6423 42.3112 50.6423 39.6553C50.6423 36.9994 49.5873 34.4524 47.7093 32.5744C45.8313 30.6964 43.2842 29.6414 40.6284 29.6414ZM40.6284 33.6469C41.4174 33.6468 42.1987 33.8021 42.9277 34.1039C43.6568 34.4057 44.3192 34.8482 44.8772 35.406C45.4352 35.9639 45.8779 36.6262 46.18 37.3551C46.4821 38.084 46.6376 38.8653 46.6377 39.6543C46.6379 40.4433 46.4826 41.2247 46.1808 41.9537C45.8789 42.6827 45.4365 43.3451 44.8786 43.9031C44.3208 44.4612 43.6585 44.9039 42.9296 45.2059C42.2007 45.508 41.4194 45.6635 40.6304 45.6637C39.0369 45.6637 37.5086 45.0306 36.3818 43.9039C35.255 42.7771 34.622 41.2488 34.622 39.6553C34.622 38.0618 35.255 36.5335 36.3818 35.4068C37.5086 34.28 39.0369 33.6469 40.6304 33.6469M51.145 26.6372C50.481 26.6372 49.8443 26.901 49.3748 27.3704C48.9053 27.8399 48.6415 28.4767 48.6415 29.1407C48.6415 29.8046 48.9053 30.4414 49.3748 30.9109C49.8443 31.3804 50.481 31.6442 51.145 31.6442C51.809 31.6442 52.4457 31.3804 52.9152 30.9109C53.3847 30.4414 53.6485 29.8046 53.6485 29.1407C53.6485 28.4767 53.3847 27.8399 52.9152 27.3704C52.4457 26.901 51.809 26.6372 51.145 26.6372Z" fill="#0094FF"/>
<path d="M42.6872 19.6274L42.6899 18.6274L42.6867 18.6274L42.6872 19.6274ZM47.0713 19.6735L47.1074 18.6741L47.0997 18.6739L47.0713 19.6735ZM47.4599 19.6875L47.4238 20.6869L47.4242 20.6869L47.4599 19.6875ZM48.8859 19.7476L48.9328 18.7487L48.9308 18.7486L48.8859 19.7476ZM53.7466 20.6789L53.3851 21.6113L53.3875 21.6122L53.7466 20.6789ZM57.2956 22.9881L56.5891 23.6959L56.5948 23.7015L57.2956 22.9881ZM59.6048 26.5371L58.6686 26.8888L58.6724 26.8986L59.6048 26.5371ZM60.5361 31.3998L61.5351 31.3548L61.535 31.3529L60.5361 31.3998ZM60.5961 32.8258L61.5957 32.7949L61.5955 32.7903L60.5961 32.8258ZM60.6082 33.2143L61.6077 33.1839L61.6077 33.1834L60.6082 33.2143ZM60.6542 37.5964L61.6542 37.5951V37.5947L60.6542 37.5964ZM60.6562 39.0905H61.6562V39.0892L60.6562 39.0905ZM60.6562 41.7142H59.6562L59.6562 41.7175L60.6562 41.7142ZM60.6102 46.0963L61.6097 46.1272L61.6099 46.1206L60.6102 46.0963ZM60.5982 46.4848L61.5975 46.5203L61.5977 46.5157L60.5982 46.4848ZM60.5381 47.9108L61.537 47.9577L61.5371 47.9559L60.5381 47.9108ZM59.6048 52.7736L58.6717 52.4138L58.6687 52.4218L59.6048 52.7736ZM57.2956 56.3225L56.5948 55.6091L56.5884 55.6154L56.5822 55.6217L57.2956 56.3225ZM53.7466 58.6317L53.3949 57.6956L53.3851 57.6993L53.7466 58.6317ZM48.8859 59.563L48.928 60.5621L48.9328 60.5619L48.8859 59.563ZM47.4599 59.6231L47.4908 60.6227L47.502 60.6222L47.4599 59.6231ZM47.0713 59.6351L47.0997 60.6347L47.1022 60.6346L47.0713 59.6351ZM42.6872 59.6812L42.6886 60.6812H42.689L42.6872 59.6812ZM41.1932 59.6832V60.6832L41.1945 60.6832L41.1932 59.6832ZM38.5715 59.6832V58.6832L38.568 58.6832L38.5715 59.6832ZM34.1874 59.6371L34.1565 60.6366L34.1629 60.6368L34.1874 59.6371ZM33.7989 59.6251L33.761 60.6244L33.768 60.6246L33.7989 59.6251ZM32.3729 59.563L32.422 58.5642L32.4198 58.5641L32.3729 59.563ZM27.5101 58.6317L27.8712 57.6991L27.8622 57.6957L27.5101 58.6317ZM23.9632 56.3225L24.6767 55.6218L24.6702 55.6153L24.6637 55.6088L23.9632 56.3225ZM21.652 52.7736L22.588 52.4215L22.5843 52.412L21.652 52.7736ZM20.7207 47.9108L19.7215 47.9529L19.7218 47.9577L20.7207 47.9108ZM20.6606 46.4848L19.6609 46.5106L19.6611 46.5187L19.6615 46.5269L20.6606 46.4848ZM20.6506 46.0963L19.6509 46.1215L19.6509 46.122L20.6506 46.0963ZM20.6005 41.7142L21.6005 41.7166V41.7142H20.6005ZM20.6005 37.5964H21.6005L21.6005 37.5926L20.6005 37.5964ZM20.6446 33.2143L19.6451 33.1783L19.6449 33.1904L20.6446 33.2143ZM20.6586 32.8258L21.6579 32.8619L21.658 32.8613L20.6586 32.8258ZM20.7187 31.3998L19.7198 31.3529L19.7197 31.3548L20.7187 31.3998ZM21.65 26.5371L22.5826 26.8981L22.5857 26.8897L21.65 26.5371ZM23.9652 22.9881L24.665 23.7024L24.672 23.6956L24.6788 23.6887L23.9652 22.9881ZM27.5101 20.6789L27.8625 21.6148L27.8712 21.6115L27.5101 20.6789ZM32.3729 19.7476L32.3278 18.7486L32.326 18.7487L32.3729 19.7476ZM33.7989 19.6875L33.768 18.688L33.7632 18.6882L33.7989 19.6875ZM34.1874 19.6755L34.1631 18.6758L34.1565 18.676L34.1874 19.6755ZM38.5695 19.6294L38.5662 20.6294L38.57 20.6294L38.5695 19.6294ZM40.6284 29.6414V28.6414V29.6414ZM30.6144 39.6553H29.6144H30.6144ZM40.6284 49.6692V48.6692V49.6692ZM50.6423 39.6553H49.6423H50.6423ZM40.6304 45.6637V46.6637H40.6305L40.6304 45.6637ZM42.6846 20.6274C44.9371 20.6334 46.0695 20.6455 47.0429 20.6731L47.0997 18.6739C46.0984 18.6455 44.9436 18.6335 42.6899 18.6274L42.6846 20.6274ZM47.0353 20.6729L47.4238 20.6869L47.4959 18.6882L47.1074 18.6742L47.0353 20.6729ZM47.4242 20.6869C47.8673 20.7027 48.305 20.7225 48.841 20.7466L48.9308 18.7486C48.3973 18.7246 47.9497 18.7044 47.4956 18.6882L47.4242 20.6869ZM48.8389 20.7465C50.8765 20.8423 52.2225 21.1605 53.3851 21.6113L54.1081 19.7465C52.7192 19.208 51.1572 18.8532 48.9328 18.7487L48.8389 20.7465ZM53.3875 21.6122C54.5848 22.073 55.5786 22.6872 56.5891 23.6959L58.002 22.2804C56.7855 21.066 55.5521 20.3022 54.1058 19.7456L53.3875 21.6122ZM56.5948 23.7015C57.5098 24.6004 58.2175 25.6881 58.6687 26.8888L60.5409 26.1853C59.9874 24.7122 59.119 23.3776 57.9964 22.2748L56.5948 23.7015ZM58.6724 26.8986C59.1232 28.0611 59.4414 29.4071 59.5372 31.4467L61.535 31.3529C61.4305 29.1266 61.0757 27.5645 60.5371 26.1755L58.6724 26.8986ZM59.5371 31.4449C59.5612 31.9787 59.581 32.4164 59.5968 32.8613L61.5955 32.7903C61.5793 32.334 61.559 31.8864 61.5351 31.3548L59.5371 31.4449ZM59.5966 32.8567L59.6086 33.2453L61.6077 33.1834L61.5957 32.7949L59.5966 32.8567ZM59.6086 33.2448C59.6382 34.2146 59.6502 35.3457 59.6542 37.5982L61.6542 37.5947C61.6502 35.3409 61.6382 34.1848 61.6077 33.1839L59.6086 33.2448ZM59.6542 37.5978L59.6562 39.0919L61.6562 39.0892L61.6542 37.5951L59.6542 37.5978ZM59.6562 39.0905V41.7142H61.6562V39.0905H59.6562ZM59.6562 41.7175C59.6611 43.1691 59.6458 44.6207 59.6105 46.0719L61.6099 46.1206C61.6457 44.651 61.6611 43.1809 61.6562 41.7108L59.6562 41.7175ZM59.6106 46.0654L59.5986 46.4539L61.5977 46.5157L61.6097 46.1272L59.6106 46.0654ZM59.5988 46.4493C59.583 46.8942 59.5632 47.3319 59.5391 47.8657L61.5371 47.9559C61.561 47.4242 61.5813 46.9766 61.5975 46.5203L59.5988 46.4493ZM59.5392 47.8639C59.4435 49.9014 59.1218 51.2464 58.6717 52.4138L60.5378 53.1333C61.0731 51.7451 61.4324 50.1861 61.537 47.9577L59.5392 47.8639ZM58.6687 52.4218C58.2175 53.6225 57.5098 54.7103 56.5948 55.6091L57.9964 57.0359C59.119 55.933 59.9874 54.5984 60.5409 53.1253L58.6687 52.4218ZM56.5822 55.6217C55.6833 56.5367 54.5956 57.2445 53.3949 57.6956L54.0984 59.5678C55.5715 59.0143 56.9061 58.1459 58.0089 57.0233L56.5822 55.6217ZM53.3851 57.6993C52.2225 58.1502 50.8765 58.4684 48.8389 58.5641L48.9328 60.5619C51.1572 60.4574 52.7192 60.1026 54.1081 59.5641L53.3851 57.6993ZM48.8438 58.5639L47.4178 58.624L47.502 60.6222L48.928 60.5621L48.8438 58.5639ZM47.429 58.6236L47.0404 58.6356L47.1022 60.6346L47.4908 60.6226L47.429 58.6236ZM47.0429 58.6355C46.0692 58.6632 44.9362 58.6772 42.6855 58.6812L42.689 60.6812C44.9445 60.6772 46.0988 60.6631 47.0997 60.6347L47.0429 58.6355ZM42.6859 58.6812L41.1918 58.6832L41.1945 60.6832L42.6886 60.6812L42.6859 58.6812ZM41.1932 58.6832H38.5715V60.6832H41.1932V58.6832ZM38.568 58.6832C37.1158 58.6883 35.6637 58.673 34.2119 58.6374L34.1629 60.6368C35.6333 60.6729 37.1042 60.6884 38.575 60.6832L38.568 58.6832ZM34.2183 58.6376L33.8298 58.6256L33.768 60.6246L34.1565 60.6366L34.2183 58.6376ZM33.8367 58.6258C33.365 58.6079 32.8935 58.5874 32.422 58.5642L32.3237 60.5618C32.8027 60.5854 33.2818 60.6062 33.761 60.6244L33.8367 58.6258ZM32.4198 58.5641C30.3824 58.4684 29.0362 58.1502 27.8712 57.6992L27.1491 59.5643C28.5396 60.1026 30.1014 60.4574 32.3259 60.5619L32.4198 58.5641ZM27.8622 57.6957C26.6621 57.2444 25.575 56.5366 24.6767 55.6218L23.2497 57.0232C24.3519 58.1455 25.6857 59.0139 27.1581 59.5677L27.8622 57.6957ZM24.6637 55.6088C23.748 54.7101 23.0396 53.6224 22.5879 52.4215L20.716 53.1256C21.2701 54.5989 22.1393 55.9335 23.2627 57.0362L24.6637 55.6088ZM22.5843 52.412C22.1335 51.2495 21.8153 49.9035 21.7196 47.8639L19.7218 47.9577C19.8263 50.184 20.181 51.7461 20.7196 53.1351L22.5843 52.412ZM21.7198 47.8687L21.6597 46.4427L19.6615 46.5269L19.7216 47.9529L21.7198 47.8687ZM21.6603 46.459L21.6502 46.0705L19.6509 46.122L19.6609 46.5106L21.6603 46.459ZM21.6503 46.071C21.6136 44.6198 21.597 43.1682 21.6005 41.7166L19.6005 41.7117C19.5969 43.1818 19.6137 44.6519 19.6509 46.1215L21.6503 46.071ZM21.6005 41.7142V37.5964H19.6005V41.7142H21.6005ZM21.6005 37.5926C21.595 36.141 21.6096 34.6894 21.6443 33.2382L19.6449 33.1904C19.6097 34.6601 19.5949 36.1302 19.6005 37.6002L21.6005 37.5926ZM21.6439 33.2504L21.6579 32.8619L19.6592 32.7897L19.6452 33.1783L21.6439 33.2504ZM21.658 32.8613C21.6738 32.4164 21.6936 31.9787 21.7177 31.4449L19.7197 31.3548C19.6957 31.8864 19.6754 32.334 19.6592 32.7903L21.658 32.8613ZM21.7176 31.4467C21.8133 29.4074 22.1315 28.0632 22.5825 26.8981L20.7174 26.176C20.1791 27.5665 19.8243 29.1263 19.7198 31.3529L21.7176 31.4467ZM22.5857 26.8897C23.0384 25.6886 23.7481 24.6008 24.665 23.7024L23.2654 22.2738C22.1404 23.376 21.2697 24.7106 20.7142 26.1844L22.5857 26.8897ZM24.6788 23.6887C25.5766 22.7741 26.6631 22.0664 27.8625 21.6148L27.1577 19.743C25.6862 20.2971 24.3532 21.1655 23.2516 22.2876L24.6788 23.6887ZM27.8712 21.6115C29.0362 21.1604 30.3805 20.8422 32.4198 20.7465L32.326 18.7487C30.0994 18.8532 28.5395 19.208 27.1491 19.7464L27.8712 21.6115ZM32.418 20.7466C32.9516 20.7225 33.3914 20.7027 33.8346 20.6869L33.7632 18.6882C33.309 18.7044 32.8596 18.7246 32.3278 18.7486L32.418 20.7466ZM33.8298 20.687L34.2183 20.675L34.1565 18.676L33.768 18.688L33.8298 20.687ZM34.2118 20.6752C35.663 20.6399 37.1146 20.6246 38.5662 20.6294L38.5728 18.6294C37.1028 18.6245 35.6327 18.64 34.1631 18.6758L34.2118 20.6752ZM38.57 20.6294L42.6877 20.6274L42.6867 18.6274L38.569 18.6294L38.57 20.6294ZM40.6284 28.6414C37.7073 28.6414 34.9059 29.8018 32.8403 31.8673L34.2546 33.2815C35.945 31.5911 38.2377 30.6414 40.6284 30.6414V28.6414ZM32.8403 31.8673C30.7748 33.9328 29.6144 36.7342 29.6144 39.6553H31.6144C31.6144 37.2647 32.5641 34.9719 34.2546 33.2815L32.8403 31.8673ZM29.6144 39.6553C29.6144 42.5764 30.7748 45.3778 32.8403 47.4433L34.2546 46.0291C32.5641 44.3387 31.6144 42.0459 31.6144 39.6553H29.6144ZM32.8403 47.4433C34.9059 49.5088 37.7073 50.6692 40.6284 50.6692V48.6692C38.2377 48.6692 35.945 47.7196 34.2546 46.0291L32.8403 47.4433ZM40.6284 50.6692C43.5494 50.6692 46.3509 49.5088 48.4164 47.4433L47.0022 46.0291C45.3117 47.7196 43.019 48.6692 40.6284 48.6692V50.6692ZM48.4164 47.4433C50.4819 45.3778 51.6423 42.5764 51.6423 39.6553H49.6423C49.6423 42.0459 48.6926 44.3387 47.0022 46.0291L48.4164 47.4433ZM51.6423 39.6553C51.6423 36.7342 50.4819 33.9328 48.4164 31.8673L47.0022 33.2815C48.6926 34.9719 49.6423 37.2647 49.6423 39.6553H51.6423ZM48.4164 31.8673C46.3509 29.8018 43.5494 28.6414 40.6284 28.6414V30.6414C43.019 30.6414 45.3117 31.5911 47.0022 33.2815L48.4164 31.8673ZM40.6285 34.6469C41.2862 34.6468 41.9375 34.7763 42.5452 35.0279L43.3103 33.18C42.4599 32.8279 41.5486 32.6468 40.6282 32.6469L40.6285 34.6469ZM42.5452 35.0279C43.1529 35.2795 43.7051 35.6483 44.1702 36.1133L45.5842 34.6988C44.9333 34.0481 44.1606 33.532 43.3103 33.18L42.5452 35.0279ZM44.1702 36.1133C44.6354 36.5783 45.0044 37.1303 45.2562 37.7379L47.1038 36.9722C46.7515 36.122 46.2351 35.3495 45.5842 34.6988L44.1702 36.1133ZM45.2562 37.7379C45.508 38.3455 45.6376 38.9968 45.6377 39.6545L47.6377 39.6541C47.6376 38.7338 47.4561 37.8225 47.1038 36.9722L45.2562 37.7379ZM45.6377 39.6545C45.6378 40.3122 45.5084 40.9635 45.2568 41.5711L47.1047 42.3362C47.4568 41.4859 47.6379 40.5745 47.6377 39.6541L45.6377 39.6545ZM45.2568 41.5711C45.0052 42.1788 44.6364 42.731 44.1714 43.1962L45.5859 44.6101C46.2365 43.9592 46.7526 43.1866 47.1047 42.3362L45.2568 41.5711ZM44.1714 43.1962C43.7064 43.6613 43.1544 44.0303 42.5468 44.2821L43.3124 46.1297C44.1627 45.7774 44.9352 45.261 45.5859 44.6101L44.1714 43.1962ZM42.5468 44.2821C41.9392 44.5339 41.2879 44.6636 40.6302 44.6637L40.6305 46.6637C41.5509 46.6635 42.4622 46.4821 43.3124 46.1297L42.5468 44.2821ZM40.6304 44.6637C39.3021 44.6637 38.0282 44.136 37.0889 43.1967L35.6747 44.611C36.989 45.9253 38.7716 46.6637 40.6304 46.6637V44.6637ZM37.0889 43.1967C36.1497 42.2575 35.622 40.9836 35.622 39.6553H33.622C33.622 41.514 34.3604 43.2966 35.6747 44.611L37.0889 43.1967ZM35.622 39.6553C35.622 38.327 36.1497 37.0531 37.0889 36.1139L35.6747 34.6996C34.3604 36.014 33.622 37.7966 33.622 39.6553H35.622ZM37.0889 36.1139C38.0282 35.1746 39.3021 34.6469 40.6304 34.6469V32.6469C38.7716 32.6469 36.989 33.3853 35.6747 34.6996L37.0889 36.1139ZM51.145 25.6372C50.2158 25.6372 49.3247 26.0063 48.6677 26.6633L50.0819 28.0776C50.3638 27.7956 50.7463 27.6372 51.145 27.6372V25.6372ZM48.6677 26.6633C48.0106 27.3204 47.6415 28.2115 47.6415 29.1407H49.6415C49.6415 28.7419 49.7999 28.3595 50.0819 28.0776L48.6677 26.6633ZM47.6415 29.1407C47.6415 30.0699 48.0106 30.961 48.6677 31.618L50.0819 30.2038C49.7999 29.9218 49.6415 29.5394 49.6415 29.1407H47.6415ZM48.6677 31.618C49.3247 32.275 50.2158 32.6442 51.145 32.6442V30.6442C50.7463 30.6442 50.3638 30.4858 50.0819 30.2038L48.6677 31.618ZM51.145 32.6442C52.0742 32.6442 52.9653 32.275 53.6223 31.618L52.2081 30.2038C51.9262 30.4858 51.5438 30.6442 51.145 30.6442V32.6442ZM53.6223 31.618C54.2794 30.961 54.6485 30.0699 54.6485 29.1407H52.6485C52.6485 29.5394 52.4901 29.9218 52.2081 30.2038L53.6223 31.618ZM54.6485 29.1407C54.6485 28.2115 54.2794 27.3204 53.6223 26.6633L52.2081 28.0776C52.4901 28.3595 52.6485 28.7419 52.6485 29.1407H54.6485ZM53.6223 26.6633C52.9653 26.0063 52.0742 25.6372 51.145 25.6372V27.6372C51.5438 27.6372 51.9262 27.7956 52.2081 28.0776L53.6223 26.6633Z" fill="#020F1C" mask="url(#path-2-inside-1_303_20)"/>
</svg>
