<svg width="82" height="81" viewBox="0 0 82 81" fill="none" xmlns="http://www.w3.org/2000/svg">
<circle cx="41.4731" cy="40.5" r="40.5" fill="#062341"/>
<path d="M27.9731 51.3667C27.9731 53.8033 29.8365 55.6667 32.2731 55.6667H52.3398C54.7765 55.6667 56.6398 53.8033 56.6398 51.3667V39.9H27.9731V51.3667ZM52.3398 29.8667H49.4731V28.4333C49.4731 27.5733 48.8998 27 48.0398 27C47.1798 27 46.6065 27.5733 46.6065 28.4333V29.8667H38.0065V28.4333C38.0065 27.5733 37.4331 27 36.5731 27C35.7131 27 35.1398 27.5733 35.1398 28.4333V29.8667H32.2731C29.8365 29.8667 27.9731 31.73 27.9731 34.1667V37.0333H56.6398V34.1667C56.6398 31.73 54.7765 29.8667 52.3398 29.8667Z" fill="#0094FF"/>
</svg>
