<svg width="82" height="81" viewBox="0 0 82 81" fill="none" xmlns="http://www.w3.org/2000/svg">
<rect x="0.973145" width="81" height="81" rx="40.5" fill="#062341"/>
<path d="M41.632 21.7588C37.695 21.7634 33.9205 23.3295 31.1366 26.1134C28.3527 28.8973 26.7866 32.6717 26.782 36.6088C26.7784 39.826 27.8292 42.9557 29.7736 45.5188C29.7736 45.5188 30.1786 46.052 30.2447 46.129L41.632 59.5588L53.0246 46.1222C53.084 46.0507 53.4904 45.5188 53.4904 45.5188L53.4917 45.5147C55.4348 42.9526 56.4851 39.8244 56.482 36.6088C56.4773 32.6717 54.9113 28.8973 52.1274 26.1134C49.3435 23.3295 45.569 21.7634 41.632 21.7588ZM41.632 42.0088C40.564 42.0088 39.5199 41.6921 38.6319 41.0987C37.7439 40.5054 37.0518 39.662 36.643 38.6753C36.2343 37.6886 36.1274 36.6028 36.3357 35.5553C36.5441 34.5078 37.0584 33.5456 37.8136 32.7904C38.5688 32.0352 39.531 31.5209 40.5785 31.3125C41.626 31.1042 42.7118 31.2111 43.6985 31.6198C44.6852 32.0286 45.5286 32.7207 46.1219 33.6087C46.7153 34.4967 47.032 35.5408 47.032 36.6088C47.0302 38.0404 46.4607 39.4129 45.4484 40.4252C44.4361 41.4375 43.0636 42.007 41.632 42.0088Z" fill="#0094FF"/>
</svg>
