<svg width="81" height="80" viewBox="0 0 81 80" fill="none" xmlns="http://www.w3.org/2000/svg">
<circle cx="40.5248" cy="39.6552" r="39.6552" fill="#020F1C"/>
<path d="M51.7731 36.8C45.3731 33 34.6731 32.6 28.5731 34.5C27.5731 34.8 26.5731 34.2 26.2731 33.3C25.9731 32.3 26.5731 31.3 27.4731 31C34.5731 28.9 46.2731 29.3 53.6731 33.7C54.5731 34.2 54.8731 35.4 54.3731 36.3C53.8731 37 52.6731 37.3 51.7731 36.8ZM51.5731 42.4C51.0731 43.1 50.1731 43.4 49.4731 42.9C44.0731 39.6 35.8731 38.6 29.5731 40.6C28.7731 40.8 27.8731 40.4 27.6731 39.6C27.4731 38.8 27.8731 37.9 28.6731 37.7C35.9731 35.5 44.9731 36.6 51.1731 40.4C51.7731 40.7 52.0731 41.7 51.5731 42.4ZM49.1731 47.9C48.7731 48.5 48.0731 48.7 47.4731 48.3C42.7731 45.4 36.8731 44.8 29.8731 46.4C29.1731 46.6 28.5731 46.1 28.3731 45.5C28.1731 44.8 28.6731 44.2 29.2731 44C36.8731 42.3 43.4731 43 48.6731 46.2C49.3731 46.5 49.4731 47.3 49.1731 47.9ZM39.9731 19C37.3467 19 34.746 19.5173 32.3195 20.5224C29.893 21.5275 27.6882 23.0007 25.831 24.8579C22.0803 28.6086 19.9731 33.6957 19.9731 39C19.9731 44.3043 22.0803 49.3914 25.831 53.1421C27.6882 54.9993 29.893 56.4725 32.3195 57.4776C34.746 58.4827 37.3467 59 39.9731 59C45.2775 59 50.3646 56.8929 54.1153 53.1421C57.866 49.3914 59.9731 44.3043 59.9731 39C59.9731 36.3736 59.4558 33.7728 58.4507 31.3463C57.4456 28.9198 55.9725 26.715 54.1153 24.8579C52.2581 23.0007 50.0533 21.5275 47.6268 20.5224C45.2003 19.5173 42.5996 19 39.9731 19Z" fill="#0094FF"/>
</svg>
