<svg width="81" height="80" viewBox="0 0 81 80" fill="none" xmlns="http://www.w3.org/2000/svg">
<circle cx="40.4213" cy="39.6552" r="39.6552" fill="#020F1C"/>
<path d="M36.5731 45.2857L46.6936 39.5L36.5731 33.7143V45.2857ZM59.1151 30.185C59.3686 31.0914 59.5441 32.3064 59.6611 33.8493C59.7976 35.3921 59.8561 36.7229 59.8561 37.88L59.9731 39.5C59.9731 43.7236 59.6611 46.8286 59.1151 48.815C58.6276 50.5507 57.4966 51.6693 55.7416 52.1514C54.8251 52.4021 53.1481 52.5757 50.5741 52.6914C48.0391 52.8264 45.7186 52.8843 43.5736 52.8843L40.4731 53C32.3026 53 27.2131 52.6914 25.2046 52.1514C23.4496 51.6693 22.3186 50.5507 21.8311 48.815C21.5776 47.9086 21.4021 46.6936 21.2851 45.1507C21.1486 43.6079 21.0901 42.2771 21.0901 41.12L20.9731 39.5C20.9731 35.2764 21.2851 32.1714 21.8311 30.185C22.3186 28.4493 23.4496 27.3307 25.2046 26.8486C26.1211 26.5979 27.7981 26.4243 30.3721 26.3086C32.9071 26.1736 35.2276 26.1157 37.3726 26.1157L40.4731 26C48.6436 26 53.7331 26.3086 55.7416 26.8486C57.4966 27.3307 58.6276 28.4493 59.1151 30.185Z" fill="#0094FF"/>
</svg>
